<?xml version="1.0" encoding="UTF-8" standalone="no"?>
<!DOCTYPE svg PUBLIC "-//W3C//DTD SVG 1.1//EN" "http://www.w3.org/Graphics/SVG/1.1/DTD/svg11.dtd">
<svg width="100%" height="100%" viewBox="0 0 465 580" version="1.1" xmlns="http://www.w3.org/2000/svg" xmlns:xlink="http://www.w3.org/1999/xlink" xml:space="preserve" xmlns:serif="http://www.serif.com/" style="fill-rule:evenodd;clip-rule:evenodd;stroke-linecap:round;stroke-linejoin:round;stroke-miterlimit:1.5;">
    <g transform="matrix(1,0,0,1,-110.081,-10.5753)">
        <rect x="110.081" y="10.575" width="280.797" height="579.766" style="fill:rgb(0,224,255);"/>
        <path d="M265.184,176.675C324.364,152.925 398.64,152.62 465.368,155.918C486.43,156.959 505.477,164.337 521.474,171.367C549.162,186.273 559.864,222.527 551.501,250.791C533.962,304.111 489.956,304.572 454.529,312.167C470.146,344.985 495.365,367.007 527.094,381.707C536.339,381.596 545.568,375.036 553.165,373.47C559.003,372.267 562.949,371.323 568.329,374.219C581.031,381.059 572.174,398.521 553.998,422.361C537.038,439.441 523.491,447.242 510.812,446.281C453.614,424.912 420.043,383.212 387.047,341.41C383.274,336.631 367.615,319.511 389.646,306.896L427.27,284.412C460.974,262.325 472.756,243.737 471.263,227.266C469.447,212.398 456.294,213.131 446.214,210.775L415.355,207.047L366.533,290.851C339.036,337.195 333.923,363.91 333.084,386.877C328.479,404.848 306.061,409.967 285.125,401.717C260.958,392.194 259.479,391.7 246.18,380.478C239.299,374.672 230.799,365.137 238.255,353.209L338.99,219.884C308.498,224.31 278.162,233.299 248.117,250.791C233.599,251.933 229.183,245.024 230.841,233.275C232.367,208.303 244.199,188.077 265.184,176.675Z" style="stroke:black;stroke-width:1px;"/>
    </g>
</svg>
